<mxfile host="Electron" agent="Mozilla/5.0 (Windows NT 10.0; Win64; x64) AppleWebKit/537.36 (KHTML, like Gecko) draw.io/25.0.1 Chrome/128.0.6613.186 Electron/32.2.6 Safari/537.36" version="25.0.1">
  <diagram name="Strona-1" id="nVqFgrIE8s11C3pOjveB">
    <mxGraphModel dx="1434" dy="956" grid="1" gridSize="10" guides="1" tooltips="1" connect="1" arrows="1" fold="1" page="1" pageScale="1" pageWidth="827" pageHeight="1169" math="0" shadow="0">
      <root>
        <mxCell id="0" />
        <mxCell id="1" parent="0" />
        <mxCell id="HUzyZTfTbTSxNMQVvvaM-1" value="Użytkownik" style="shape=umlActor;verticalLabelPosition=bottom;verticalAlign=top;html=1;outlineConnect=0;fillColor=#fff2cc;strokeColor=#d6b656;strokeWidth=3;" vertex="1" parent="1">
          <mxGeometry x="50" y="305" width="30" height="60" as="geometry" />
        </mxCell>
        <mxCell id="HUzyZTfTbTSxNMQVvvaM-2" value="" style="ellipse;whiteSpace=wrap;html=1;fillColor=#f8cecc;strokeColor=#b85450;" vertex="1" parent="1">
          <mxGeometry x="150" y="275" width="120" height="40" as="geometry" />
        </mxCell>
        <mxCell id="HUzyZTfTbTSxNMQVvvaM-3" value="Logowanie" style="text;html=1;align=center;verticalAlign=middle;whiteSpace=wrap;rounded=0;" vertex="1" parent="1">
          <mxGeometry x="180" y="280" width="60" height="30" as="geometry" />
        </mxCell>
        <mxCell id="HUzyZTfTbTSxNMQVvvaM-4" value="" style="ellipse;whiteSpace=wrap;html=1;fillColor=#e1d5e7;strokeColor=#9673a6;" vertex="1" parent="1">
          <mxGeometry x="150" y="395" width="120" height="40" as="geometry" />
        </mxCell>
        <mxCell id="HUzyZTfTbTSxNMQVvvaM-5" value="Rejestracja" style="text;html=1;align=center;verticalAlign=middle;whiteSpace=wrap;rounded=0;" vertex="1" parent="1">
          <mxGeometry x="180" y="400" width="60" height="30" as="geometry" />
        </mxCell>
        <mxCell id="HUzyZTfTbTSxNMQVvvaM-7" value="" style="ellipse;whiteSpace=wrap;html=1;fillColor=#dae8fc;strokeColor=#6c8ebf;" vertex="1" parent="1">
          <mxGeometry x="240" y="590" width="150" height="70" as="geometry" />
        </mxCell>
        <mxCell id="HUzyZTfTbTSxNMQVvvaM-8" value="Konwersajca z innymi użytkownikami" style="text;html=1;align=center;verticalAlign=middle;whiteSpace=wrap;rounded=0;" vertex="1" parent="1">
          <mxGeometry x="285" y="610" width="60" height="30" as="geometry" />
        </mxCell>
        <mxCell id="HUzyZTfTbTSxNMQVvvaM-9" value="" style="ellipse;whiteSpace=wrap;html=1;fillColor=#fff2cc;strokeColor=#d6b656;" vertex="1" parent="1">
          <mxGeometry x="350" y="140" width="120" height="40" as="geometry" />
        </mxCell>
        <mxCell id="HUzyZTfTbTSxNMQVvvaM-10" value="Zarządzanie plikami" style="text;html=1;align=center;verticalAlign=middle;whiteSpace=wrap;rounded=0;" vertex="1" parent="1">
          <mxGeometry x="380" y="145" width="60" height="30" as="geometry" />
        </mxCell>
        <mxCell id="HUzyZTfTbTSxNMQVvvaM-13" value="" style="ellipse;whiteSpace=wrap;html=1;fillColor=#fff2cc;strokeColor=#d6b656;" vertex="1" parent="1">
          <mxGeometry x="460" y="70" width="120" height="40" as="geometry" />
        </mxCell>
        <mxCell id="HUzyZTfTbTSxNMQVvvaM-14" value="Pobieranie" style="text;html=1;align=center;verticalAlign=middle;whiteSpace=wrap;rounded=0;" vertex="1" parent="1">
          <mxGeometry x="490" y="75" width="60" height="30" as="geometry" />
        </mxCell>
        <mxCell id="HUzyZTfTbTSxNMQVvvaM-15" value="" style="ellipse;whiteSpace=wrap;html=1;fillColor=#fff2cc;strokeColor=#d6b656;" vertex="1" parent="1">
          <mxGeometry x="240" y="65" width="120" height="40" as="geometry" />
        </mxCell>
        <mxCell id="HUzyZTfTbTSxNMQVvvaM-16" value="Przesył" style="text;html=1;align=center;verticalAlign=middle;whiteSpace=wrap;rounded=0;" vertex="1" parent="1">
          <mxGeometry x="270" y="70" width="60" height="30" as="geometry" />
        </mxCell>
        <mxCell id="HUzyZTfTbTSxNMQVvvaM-17" value="" style="ellipse;whiteSpace=wrap;html=1;fillColor=#fff2cc;strokeColor=#d6b656;" vertex="1" parent="1">
          <mxGeometry x="490" y="220" width="120" height="40" as="geometry" />
        </mxCell>
        <mxCell id="HUzyZTfTbTSxNMQVvvaM-18" value="Zamiana nazw" style="text;html=1;align=center;verticalAlign=middle;whiteSpace=wrap;rounded=0;" vertex="1" parent="1">
          <mxGeometry x="520" y="225" width="60" height="30" as="geometry" />
        </mxCell>
        <mxCell id="HUzyZTfTbTSxNMQVvvaM-19" value="" style="ellipse;whiteSpace=wrap;html=1;fillColor=#fff2cc;strokeColor=#d6b656;" vertex="1" parent="1">
          <mxGeometry x="510" y="120" width="120" height="40" as="geometry" />
        </mxCell>
        <mxCell id="HUzyZTfTbTSxNMQVvvaM-20" value="Edycja zawartości" style="text;html=1;align=center;verticalAlign=middle;whiteSpace=wrap;rounded=0;" vertex="1" parent="1">
          <mxGeometry x="540" y="125" width="60" height="30" as="geometry" />
        </mxCell>
        <mxCell id="HUzyZTfTbTSxNMQVvvaM-21" value="" style="ellipse;whiteSpace=wrap;html=1;fillColor=#fff2cc;strokeColor=#d6b656;" vertex="1" parent="1">
          <mxGeometry x="550" y="170" width="120" height="40" as="geometry" />
        </mxCell>
        <mxCell id="HUzyZTfTbTSxNMQVvvaM-22" value="Udostepnianie" style="text;html=1;align=center;verticalAlign=middle;whiteSpace=wrap;rounded=0;" vertex="1" parent="1">
          <mxGeometry x="580" y="175" width="60" height="30" as="geometry" />
        </mxCell>
        <mxCell id="HUzyZTfTbTSxNMQVvvaM-23" value="" style="ellipse;whiteSpace=wrap;html=1;fillColor=#fff2cc;strokeColor=#d6b656;" vertex="1" parent="1">
          <mxGeometry x="370" y="30" width="120" height="40" as="geometry" />
        </mxCell>
        <mxCell id="HUzyZTfTbTSxNMQVvvaM-24" value="Podgląd zawartości" style="text;html=1;align=center;verticalAlign=middle;whiteSpace=wrap;rounded=0;" vertex="1" parent="1">
          <mxGeometry x="400" y="35" width="60" height="30" as="geometry" />
        </mxCell>
        <mxCell id="HUzyZTfTbTSxNMQVvvaM-25" value="" style="ellipse;whiteSpace=wrap;html=1;fillColor=#dae8fc;strokeColor=#6c8ebf;" vertex="1" parent="1">
          <mxGeometry x="270" y="517.5" width="120" height="40" as="geometry" />
        </mxCell>
        <mxCell id="HUzyZTfTbTSxNMQVvvaM-26" value="Zarządzanie znajomymi" style="text;html=1;align=center;verticalAlign=middle;whiteSpace=wrap;rounded=0;" vertex="1" parent="1">
          <mxGeometry x="300" y="522.5" width="60" height="30" as="geometry" />
        </mxCell>
        <mxCell id="HUzyZTfTbTSxNMQVvvaM-27" value="" style="ellipse;whiteSpace=wrap;html=1;fillColor=#dae8fc;strokeColor=#6c8ebf;" vertex="1" parent="1">
          <mxGeometry x="400" y="557.5" width="130" height="55" as="geometry" />
        </mxCell>
        <mxCell id="HUzyZTfTbTSxNMQVvvaM-28" value="Zapraszanie nowych znajomych" style="text;html=1;align=center;verticalAlign=middle;whiteSpace=wrap;rounded=0;" vertex="1" parent="1">
          <mxGeometry x="435" y="570" width="60" height="30" as="geometry" />
        </mxCell>
        <mxCell id="HUzyZTfTbTSxNMQVvvaM-31" value="" style="ellipse;whiteSpace=wrap;html=1;fillColor=#d5e8d4;strokeColor=#82b366;" vertex="1" parent="1">
          <mxGeometry x="460" y="340" width="125" height="90" as="geometry" />
        </mxCell>
        <mxCell id="HUzyZTfTbTSxNMQVvvaM-32" value="System magazynów" style="text;html=1;align=center;verticalAlign=middle;whiteSpace=wrap;rounded=0;" vertex="1" parent="1">
          <mxGeometry x="492.5" y="370" width="60.5" height="30" as="geometry" />
        </mxCell>
        <mxCell id="HUzyZTfTbTSxNMQVvvaM-33" value="" style="ellipse;whiteSpace=wrap;html=1;fillColor=#d5e8d4;strokeColor=#82b366;" vertex="1" parent="1">
          <mxGeometry x="570" y="270" width="100" height="70" as="geometry" />
        </mxCell>
        <mxCell id="HUzyZTfTbTSxNMQVvvaM-34" value="Tworzenie magazynu" style="text;html=1;align=center;verticalAlign=middle;whiteSpace=wrap;rounded=0;" vertex="1" parent="1">
          <mxGeometry x="590" y="290" width="60" height="30" as="geometry" />
        </mxCell>
        <mxCell id="HUzyZTfTbTSxNMQVvvaM-37" value="" style="ellipse;whiteSpace=wrap;html=1;fillColor=#d5e8d4;strokeColor=#82b366;" vertex="1" parent="1">
          <mxGeometry x="682.5" y="310" width="100" height="70" as="geometry" />
        </mxCell>
        <mxCell id="HUzyZTfTbTSxNMQVvvaM-38" value="Dodawanie i usuwanie plików" style="text;html=1;align=center;verticalAlign=middle;whiteSpace=wrap;rounded=0;" vertex="1" parent="1">
          <mxGeometry x="702.5" y="330" width="60" height="30" as="geometry" />
        </mxCell>
        <mxCell id="HUzyZTfTbTSxNMQVvvaM-39" value="" style="ellipse;whiteSpace=wrap;html=1;fillColor=#d5e8d4;strokeColor=#82b366;" vertex="1" parent="1">
          <mxGeometry x="657.5" y="395" width="105" height="67.5" as="geometry" />
        </mxCell>
        <mxCell id="HUzyZTfTbTSxNMQVvvaM-40" value="Edycja plików" style="text;html=1;align=center;verticalAlign=middle;whiteSpace=wrap;rounded=0;" vertex="1" parent="1">
          <mxGeometry x="680" y="413.75" width="60" height="30" as="geometry" />
        </mxCell>
        <mxCell id="HUzyZTfTbTSxNMQVvvaM-42" value="" style="ellipse;whiteSpace=wrap;html=1;fillColor=#d5e8d4;strokeColor=#82b366;" vertex="1" parent="1">
          <mxGeometry x="580" y="450" width="105" height="67.5" as="geometry" />
        </mxCell>
        <mxCell id="HUzyZTfTbTSxNMQVvvaM-43" value="Udzielanie dostępu" style="text;html=1;align=center;verticalAlign=middle;whiteSpace=wrap;rounded=0;" vertex="1" parent="1">
          <mxGeometry x="602.5" y="468.75" width="60" height="30" as="geometry" />
        </mxCell>
        <mxCell id="HUzyZTfTbTSxNMQVvvaM-44" value="" style="ellipse;whiteSpace=wrap;html=1;fillColor=#d5e8d4;strokeColor=#82b366;" vertex="1" parent="1">
          <mxGeometry x="460" y="462.5" width="105" height="67.5" as="geometry" />
        </mxCell>
        <mxCell id="HUzyZTfTbTSxNMQVvvaM-45" value="Edycja plików" style="text;html=1;align=center;verticalAlign=middle;whiteSpace=wrap;rounded=0;" vertex="1" parent="1">
          <mxGeometry x="482.5" y="481.25" width="60" height="30" as="geometry" />
        </mxCell>
        <mxCell id="HUzyZTfTbTSxNMQVvvaM-46" value="" style="endArrow=classic;html=1;rounded=0;entryX=0;entryY=1;entryDx=0;entryDy=0;fillColor=#fff2cc;strokeColor=#d6b656;" edge="1" parent="1" target="HUzyZTfTbTSxNMQVvvaM-2">
          <mxGeometry width="50" height="50" relative="1" as="geometry">
            <mxPoint x="100" y="340" as="sourcePoint" />
            <mxPoint x="350" y="350" as="targetPoint" />
          </mxGeometry>
        </mxCell>
        <mxCell id="HUzyZTfTbTSxNMQVvvaM-49" value="" style="endArrow=classic;html=1;rounded=0;entryX=0;entryY=0;entryDx=0;entryDy=0;fillColor=#fff2cc;strokeColor=#d6b656;" edge="1" parent="1" target="HUzyZTfTbTSxNMQVvvaM-4">
          <mxGeometry width="50" height="50" relative="1" as="geometry">
            <mxPoint x="100" y="340" as="sourcePoint" />
            <mxPoint x="178" y="319" as="targetPoint" />
          </mxGeometry>
        </mxCell>
        <mxCell id="HUzyZTfTbTSxNMQVvvaM-50" value="" style="endArrow=classic;html=1;rounded=0;entryX=0;entryY=1;entryDx=0;entryDy=0;exitX=1;exitY=0.5;exitDx=0;exitDy=0;fillColor=#f8cecc;strokeColor=#b85450;" edge="1" parent="1" source="HUzyZTfTbTSxNMQVvvaM-2" target="HUzyZTfTbTSxNMQVvvaM-9">
          <mxGeometry width="50" height="50" relative="1" as="geometry">
            <mxPoint x="120" y="360" as="sourcePoint" />
            <mxPoint x="188" y="329" as="targetPoint" />
          </mxGeometry>
        </mxCell>
        <mxCell id="HUzyZTfTbTSxNMQVvvaM-51" value="" style="endArrow=classic;html=1;rounded=0;exitX=1;exitY=0.5;exitDx=0;exitDy=0;fillColor=#f8cecc;strokeColor=#b85450;" edge="1" parent="1" source="HUzyZTfTbTSxNMQVvvaM-2" target="HUzyZTfTbTSxNMQVvvaM-31">
          <mxGeometry width="50" height="50" relative="1" as="geometry">
            <mxPoint x="280" y="305" as="sourcePoint" />
            <mxPoint x="378" y="184" as="targetPoint" />
          </mxGeometry>
        </mxCell>
        <mxCell id="HUzyZTfTbTSxNMQVvvaM-52" value="" style="endArrow=classic;html=1;rounded=0;exitX=1;exitY=0.5;exitDx=0;exitDy=0;entryX=0.5;entryY=0;entryDx=0;entryDy=0;fillColor=#f8cecc;strokeColor=#b85450;" edge="1" parent="1" source="HUzyZTfTbTSxNMQVvvaM-2" target="HUzyZTfTbTSxNMQVvvaM-25">
          <mxGeometry width="50" height="50" relative="1" as="geometry">
            <mxPoint x="280" y="305" as="sourcePoint" />
            <mxPoint x="477" y="375" as="targetPoint" />
          </mxGeometry>
        </mxCell>
        <mxCell id="HUzyZTfTbTSxNMQVvvaM-53" value="" style="endArrow=classic;html=1;rounded=0;exitX=0.5;exitY=1;exitDx=0;exitDy=0;entryX=0.64;entryY=0.057;entryDx=0;entryDy=0;entryPerimeter=0;fillColor=#dae8fc;strokeColor=#6c8ebf;" edge="1" parent="1" source="HUzyZTfTbTSxNMQVvvaM-25" target="HUzyZTfTbTSxNMQVvvaM-7">
          <mxGeometry width="50" height="50" relative="1" as="geometry">
            <mxPoint x="290" y="315" as="sourcePoint" />
            <mxPoint x="487" y="385" as="targetPoint" />
          </mxGeometry>
        </mxCell>
        <mxCell id="HUzyZTfTbTSxNMQVvvaM-54" value="" style="endArrow=classic;html=1;rounded=0;exitX=1;exitY=0.5;exitDx=0;exitDy=0;entryX=0.254;entryY=0.064;entryDx=0;entryDy=0;entryPerimeter=0;fillColor=#dae8fc;strokeColor=#6c8ebf;" edge="1" parent="1" source="HUzyZTfTbTSxNMQVvvaM-25" target="HUzyZTfTbTSxNMQVvvaM-27">
          <mxGeometry width="50" height="50" relative="1" as="geometry">
            <mxPoint x="300" y="325" as="sourcePoint" />
            <mxPoint x="497" y="395" as="targetPoint" />
          </mxGeometry>
        </mxCell>
        <mxCell id="HUzyZTfTbTSxNMQVvvaM-55" value="" style="endArrow=classic;html=1;rounded=0;exitX=0.5;exitY=1;exitDx=0;exitDy=0;entryX=0.5;entryY=0;entryDx=0;entryDy=0;fillColor=#d5e8d4;strokeColor=#82b366;" edge="1" parent="1" source="HUzyZTfTbTSxNMQVvvaM-31" target="HUzyZTfTbTSxNMQVvvaM-44">
          <mxGeometry width="50" height="50" relative="1" as="geometry">
            <mxPoint x="310" y="335" as="sourcePoint" />
            <mxPoint x="507" y="405" as="targetPoint" />
          </mxGeometry>
        </mxCell>
        <mxCell id="HUzyZTfTbTSxNMQVvvaM-56" value="" style="endArrow=classic;html=1;rounded=0;exitX=1;exitY=1;exitDx=0;exitDy=0;fillColor=#d5e8d4;strokeColor=#82b366;" edge="1" parent="1" source="HUzyZTfTbTSxNMQVvvaM-31" target="HUzyZTfTbTSxNMQVvvaM-42">
          <mxGeometry width="50" height="50" relative="1" as="geometry">
            <mxPoint x="320" y="345" as="sourcePoint" />
            <mxPoint x="517" y="415" as="targetPoint" />
          </mxGeometry>
        </mxCell>
        <mxCell id="HUzyZTfTbTSxNMQVvvaM-57" value="" style="endArrow=classic;html=1;rounded=0;exitX=1;exitY=0.5;exitDx=0;exitDy=0;entryX=0;entryY=0.5;entryDx=0;entryDy=0;fillColor=#d5e8d4;strokeColor=#82b366;" edge="1" parent="1" source="HUzyZTfTbTSxNMQVvvaM-31" target="HUzyZTfTbTSxNMQVvvaM-39">
          <mxGeometry width="50" height="50" relative="1" as="geometry">
            <mxPoint x="577" y="427" as="sourcePoint" />
            <mxPoint x="614" y="465" as="targetPoint" />
          </mxGeometry>
        </mxCell>
        <mxCell id="HUzyZTfTbTSxNMQVvvaM-58" value="" style="endArrow=classic;html=1;rounded=0;exitX=1;exitY=0.5;exitDx=0;exitDy=0;entryX=0.035;entryY=0.614;entryDx=0;entryDy=0;entryPerimeter=0;fillColor=#d5e8d4;strokeColor=#82b366;" edge="1" parent="1" source="HUzyZTfTbTSxNMQVvvaM-31" target="HUzyZTfTbTSxNMQVvvaM-37">
          <mxGeometry width="50" height="50" relative="1" as="geometry">
            <mxPoint x="595" y="395" as="sourcePoint" />
            <mxPoint x="668" y="439" as="targetPoint" />
          </mxGeometry>
        </mxCell>
        <mxCell id="HUzyZTfTbTSxNMQVvvaM-59" value="" style="endArrow=classic;html=1;rounded=0;exitX=1;exitY=0;exitDx=0;exitDy=0;entryX=0;entryY=1;entryDx=0;entryDy=0;fillColor=#d5e8d4;strokeColor=#82b366;" edge="1" parent="1" source="HUzyZTfTbTSxNMQVvvaM-31" target="HUzyZTfTbTSxNMQVvvaM-33">
          <mxGeometry width="50" height="50" relative="1" as="geometry">
            <mxPoint x="595" y="395" as="sourcePoint" />
            <mxPoint x="696" y="363" as="targetPoint" />
          </mxGeometry>
        </mxCell>
        <mxCell id="HUzyZTfTbTSxNMQVvvaM-60" value="" style="endArrow=classic;html=1;rounded=0;exitX=1;exitY=1;exitDx=0;exitDy=0;entryX=0;entryY=0;entryDx=0;entryDy=0;fillColor=#fff2cc;strokeColor=#d6b656;" edge="1" parent="1" source="HUzyZTfTbTSxNMQVvvaM-9" target="HUzyZTfTbTSxNMQVvvaM-17">
          <mxGeometry width="50" height="50" relative="1" as="geometry">
            <mxPoint x="577" y="363" as="sourcePoint" />
            <mxPoint x="595" y="340" as="targetPoint" />
          </mxGeometry>
        </mxCell>
        <mxCell id="HUzyZTfTbTSxNMQVvvaM-61" value="" style="endArrow=classic;html=1;rounded=0;exitX=1;exitY=0.5;exitDx=0;exitDy=0;entryX=0;entryY=0.5;entryDx=0;entryDy=0;fillColor=#fff2cc;strokeColor=#d6b656;" edge="1" parent="1" source="HUzyZTfTbTSxNMQVvvaM-9" target="HUzyZTfTbTSxNMQVvvaM-21">
          <mxGeometry width="50" height="50" relative="1" as="geometry">
            <mxPoint x="462" y="184" as="sourcePoint" />
            <mxPoint x="518" y="236" as="targetPoint" />
          </mxGeometry>
        </mxCell>
        <mxCell id="HUzyZTfTbTSxNMQVvvaM-62" value="" style="endArrow=classic;html=1;rounded=0;exitX=1;exitY=0;exitDx=0;exitDy=0;entryX=0;entryY=0.5;entryDx=0;entryDy=0;fillColor=#fff2cc;strokeColor=#d6b656;" edge="1" parent="1" source="HUzyZTfTbTSxNMQVvvaM-9" target="HUzyZTfTbTSxNMQVvvaM-19">
          <mxGeometry width="50" height="50" relative="1" as="geometry">
            <mxPoint x="480" y="170" as="sourcePoint" />
            <mxPoint x="560" y="200" as="targetPoint" />
          </mxGeometry>
        </mxCell>
        <mxCell id="HUzyZTfTbTSxNMQVvvaM-63" value="" style="endArrow=classic;html=1;rounded=0;exitX=0.575;exitY=-0.025;exitDx=0;exitDy=0;entryX=0;entryY=1;entryDx=0;entryDy=0;exitPerimeter=0;fillColor=#fff2cc;strokeColor=#d6b656;" edge="1" parent="1" source="HUzyZTfTbTSxNMQVvvaM-9" target="HUzyZTfTbTSxNMQVvvaM-13">
          <mxGeometry width="50" height="50" relative="1" as="geometry">
            <mxPoint x="462" y="156" as="sourcePoint" />
            <mxPoint x="520" y="150" as="targetPoint" />
          </mxGeometry>
        </mxCell>
        <mxCell id="HUzyZTfTbTSxNMQVvvaM-64" value="" style="endArrow=classic;html=1;rounded=0;exitX=0.35;exitY=-0.05;exitDx=0;exitDy=0;entryX=0.342;entryY=1.05;entryDx=0;entryDy=0;exitPerimeter=0;entryPerimeter=0;fillColor=#fff2cc;strokeColor=#d6b656;" edge="1" parent="1" source="HUzyZTfTbTSxNMQVvvaM-9" target="HUzyZTfTbTSxNMQVvvaM-23">
          <mxGeometry width="50" height="50" relative="1" as="geometry">
            <mxPoint x="472" y="166" as="sourcePoint" />
            <mxPoint x="530" y="160" as="targetPoint" />
          </mxGeometry>
        </mxCell>
        <mxCell id="HUzyZTfTbTSxNMQVvvaM-65" value="" style="endArrow=classic;html=1;rounded=0;exitX=0;exitY=0;exitDx=0;exitDy=0;entryX=1;entryY=1;entryDx=0;entryDy=0;fillColor=#fff2cc;strokeColor=#d6b656;" edge="1" parent="1" source="HUzyZTfTbTSxNMQVvvaM-9" target="HUzyZTfTbTSxNMQVvvaM-16">
          <mxGeometry width="50" height="50" relative="1" as="geometry">
            <mxPoint x="482" y="176" as="sourcePoint" />
            <mxPoint x="540" y="170" as="targetPoint" />
          </mxGeometry>
        </mxCell>
        <mxCell id="HUzyZTfTbTSxNMQVvvaM-66" value="" style="ellipse;whiteSpace=wrap;html=1;fillColor=#dae8fc;strokeColor=#6c8ebf;" vertex="1" parent="1">
          <mxGeometry x="360" y="695" width="130" height="60" as="geometry" />
        </mxCell>
        <mxCell id="HUzyZTfTbTSxNMQVvvaM-67" value="Wysyłanie wiadomości" style="text;html=1;align=center;verticalAlign=middle;whiteSpace=wrap;rounded=0;" vertex="1" parent="1">
          <mxGeometry x="395" y="710" width="60" height="30" as="geometry" />
        </mxCell>
        <mxCell id="HUzyZTfTbTSxNMQVvvaM-68" value="" style="ellipse;whiteSpace=wrap;html=1;fillColor=#dae8fc;strokeColor=#6c8ebf;" vertex="1" parent="1">
          <mxGeometry x="210" y="710" width="120" height="60" as="geometry" />
        </mxCell>
        <mxCell id="HUzyZTfTbTSxNMQVvvaM-69" value="Otrzymywanie powiadomień" style="text;html=1;align=center;verticalAlign=middle;whiteSpace=wrap;rounded=0;" vertex="1" parent="1">
          <mxGeometry x="240" y="725" width="60" height="30" as="geometry" />
        </mxCell>
        <mxCell id="HUzyZTfTbTSxNMQVvvaM-70" value="" style="endArrow=classic;html=1;rounded=0;exitX=0.333;exitY=0.943;exitDx=0;exitDy=0;entryX=0.5;entryY=0;entryDx=0;entryDy=0;fillColor=#dae8fc;strokeColor=#6c8ebf;exitPerimeter=0;" edge="1" parent="1" source="HUzyZTfTbTSxNMQVvvaM-7" target="HUzyZTfTbTSxNMQVvvaM-68">
          <mxGeometry width="50" height="50" relative="1" as="geometry">
            <mxPoint x="340" y="568" as="sourcePoint" />
            <mxPoint x="346" y="604" as="targetPoint" />
          </mxGeometry>
        </mxCell>
        <mxCell id="HUzyZTfTbTSxNMQVvvaM-71" value="" style="endArrow=classic;html=1;rounded=0;exitX=1;exitY=1;exitDx=0;exitDy=0;entryX=0.5;entryY=0;entryDx=0;entryDy=0;fillColor=#dae8fc;strokeColor=#6c8ebf;" edge="1" parent="1" source="HUzyZTfTbTSxNMQVvvaM-7" target="HUzyZTfTbTSxNMQVvvaM-66">
          <mxGeometry width="50" height="50" relative="1" as="geometry">
            <mxPoint x="350" y="578" as="sourcePoint" />
            <mxPoint x="356" y="614" as="targetPoint" />
          </mxGeometry>
        </mxCell>
      </root>
    </mxGraphModel>
  </diagram>
</mxfile>
